<svg width="121" height="121" viewBox="0 0 121 121" fill="none" xmlns="http://www.w3.org/2000/svg">
<g clip-path="url(#clip0_5_305)">
<rect x="0.622803" y="0.5" width="120" height="120" rx="27" fill="#121212"/>
<path d="M61.429 83.6295C59.917 83.4982 58.4928 82.8368 57.4139 81.7648C57.1201 81.4728 56.8616 81.1603 56.623 80.8086C56.5271 80.6673 56.4394 80.548 56.4281 80.5435C56.4168 80.5391 56.0847 80.6926 55.6901 80.8847C53.606 81.8994 51.0722 82.657 48.5662 83.0148C47.9931 83.0967 47.5867 83.1417 46.6013 83.2327C46.07 83.2818 26.049 83.3055 25.4857 83.2578C23.9842 83.1305 22.6277 82.5115 21.545 81.4596C20.9663 80.8973 20.5641 80.3446 20.2245 79.6447C19.9382 79.0547 19.7934 78.607 19.6572 77.8914C19.6116 77.6793 19.5881 77.4424 19.5937 77.2153L19.5834 60.887C19.5761 49.1172 19.5826 44.113 19.6056 43.8676C19.7252 42.5931 20.2172 41.3824 21.0184 40.3911C21.2699 40.08 21.8331 39.5385 22.1554 39.298C22.9958 38.6709 23.8904 38.2899 25.002 38.0857L25.3647 38.0191L34.5395 38.0093C43.5534 37.9996 44.4503 38.0067 45.4525 38.0956C47.9038 38.3132 50.359 38.9432 52.5717 39.9226C53.0807 40.1479 54.0637 40.6398 54.4473 40.8612C57.1952 42.4467 59.176 45.226 59.7664 48.3246C59.8983 49.0168 59.9362 49.3935 59.9537 50.1868C59.9718 51.005 59.9449 51.4765 59.8409 52.161C59.5507 54.0721 58.7481 55.8964 57.5247 57.4257C57.0332 58.04 56.0958 58.9465 55.5412 59.3438C55.4619 59.4006 55.4075 59.4568 55.4203 59.4688C55.4331 59.4807 55.6436 59.5791 55.8882 59.6874C57.9911 60.6186 59.8325 62.2417 61.0317 64.2212C61.2235 64.5378 61.2307 64.5454 61.272 64.4782C61.2954 64.44 63.9496 59.3171 67.1701 53.0939C70.3906 46.8707 73.1087 41.6413 73.2104 41.473C73.5969 40.8332 74.1914 40.1094 74.735 39.6166C76.0842 38.3938 77.6066 37.6804 79.4461 37.4091C79.9573 37.3337 81.2317 37.3337 81.7435 37.409C82.7714 37.5604 83.5739 37.808 84.4503 38.2444C86.0382 39.035 87.3169 40.2642 88.1772 41.827C88.3524 42.1452 104.701 73.7198 105.026 74.3669C105.344 75.0002 105.551 75.7228 105.642 76.5157C105.688 76.9128 105.663 77.8423 105.596 78.239C105.345 79.7294 104.581 81.094 103.453 82.0662C101.009 84.1727 97.4276 84.1748 94.9842 82.0711C94.2896 81.473 93.8368 80.8728 93.3588 79.9166C93.2175 79.6339 93.0207 79.2938 92.9215 79.1609C92.4027 78.4659 91.6674 78.0027 90.8125 77.8323C90.5936 77.7887 89.6149 77.7849 80.489 77.7925L70.4073 77.8009L70.1212 77.8851C69.7793 77.9857 69.3537 78.1825 69.0887 78.3624C68.7916 78.5642 68.3823 78.9774 68.1801 79.2796C68.0804 79.4287 67.9208 79.7147 67.8255 79.9151C66.8259 82.0172 64.8606 83.4043 62.5778 83.6189C62.2664 83.6482 61.7035 83.6534 61.429 83.6295Z" fill="#FED501"/>
</g>
<defs>
<clipPath id="clip0_5_305">
<rect width="120" height="120" fill="white" transform="translate(0.622803 0.5)"/>
</clipPath>
</defs>
</svg>
