<svg width="121" height="120" viewBox="0 0 121 120" fill="none" xmlns="http://www.w3.org/2000/svg">
<g clip-path="url(#clip0_4_48)">
<rect x="0.622803" width="120" height="120" rx="27" fill="#FED501"/>
<path d="M61.429 83.1295C59.917 82.9982 58.4928 82.3368 57.4139 81.2648C57.1201 80.9728 56.8616 80.6603 56.623 80.3086C56.5271 80.1673 56.4394 80.048 56.4281 80.0435C56.4168 80.0391 56.0847 80.1926 55.6901 80.3847C53.606 81.3994 51.0722 82.157 48.5662 82.5148C47.9931 82.5967 47.5867 82.6417 46.6013 82.7327C46.07 82.7818 26.049 82.8055 25.4857 82.7578C23.9842 82.6305 22.6277 82.0115 21.545 80.9596C20.9663 80.3973 20.5641 79.8446 20.2245 79.1447C19.9382 78.5547 19.7934 78.107 19.6572 77.3914C19.6116 77.1793 19.5881 76.9424 19.5937 76.7153L19.5834 60.387C19.5761 48.6172 19.5826 43.613 19.6056 43.3676C19.7252 42.0931 20.2172 40.8824 21.0184 39.8911C21.2699 39.58 21.8331 39.0385 22.1554 38.798C22.9958 38.1709 23.8904 37.7899 25.002 37.5857L25.3647 37.5191L34.5395 37.5093C43.5534 37.4996 44.4503 37.5067 45.4525 37.5956C47.9038 37.8132 50.359 38.4432 52.5717 39.4226C53.0807 39.6479 54.0637 40.1398 54.4473 40.3612C57.1952 41.9467 59.176 44.726 59.7664 47.8246C59.8983 48.5168 59.9362 48.8935 59.9537 49.6868C59.9718 50.505 59.9449 50.9765 59.8409 51.661C59.5507 53.5721 58.7481 55.3964 57.5247 56.9257C57.0332 57.54 56.0958 58.4465 55.5412 58.8438C55.4619 58.9006 55.4075 58.9568 55.4203 58.9688C55.4331 58.9807 55.6436 59.0791 55.8882 59.1874C57.9911 60.1186 59.8325 61.7417 61.0317 63.7212C61.2235 64.0378 61.2307 64.0454 61.272 63.9782C61.2954 63.94 63.9496 58.8171 67.1701 52.5939C70.3906 46.3707 73.1087 41.1413 73.2104 40.973C73.5969 40.3332 74.1914 39.6094 74.735 39.1166C76.0842 37.8938 77.6066 37.1804 79.4461 36.9091C79.9573 36.8337 81.2317 36.8337 81.7435 36.909C82.7714 37.0604 83.5739 37.308 84.4503 37.7444C86.0382 38.535 87.3169 39.7642 88.1772 41.327C88.3524 41.6452 104.701 73.2198 105.026 73.8669C105.344 74.5002 105.551 75.2228 105.642 76.0157C105.688 76.4128 105.663 77.3423 105.596 77.739C105.345 79.2294 104.581 80.594 103.453 81.5662C101.009 83.6727 97.4276 83.6748 94.9842 81.5711C94.2896 80.973 93.8368 80.3728 93.3588 79.4166C93.2175 79.1339 93.0207 78.7938 92.9215 78.6609C92.4027 77.9659 91.6674 77.5027 90.8125 77.3323C90.5936 77.2887 89.6149 77.2849 80.489 77.2925L70.4073 77.3009L70.1212 77.3851C69.7793 77.4857 69.3537 77.6825 69.0887 77.8624C68.7916 78.0642 68.3823 78.4774 68.1801 78.7796C68.0804 78.9287 67.9208 79.2147 67.8255 79.4151C66.8259 81.5172 64.8606 82.9043 62.5778 83.1189C62.2664 83.1482 61.7035 83.1534 61.429 83.1295Z" fill="#1D1D1B"/>
</g>
<defs>
<clipPath id="clip0_4_48">
<rect width="120" height="120" fill="white" transform="translate(0.622803)"/>
</clipPath>
</defs>
</svg>
