<svg width="121" height="121" viewBox="0 0 121 121" fill="none" xmlns="http://www.w3.org/2000/svg">
<g clip-path="url(#clip0_5_293)">
<rect x="0.622803" y="0.5" width="120" height="120" rx="27" fill="#121212"/>
<path d="M36.9265 26.0724C40.4077 26.0724 43.2297 28.8944 43.2297 32.3756V65.3277C43.2297 74.6888 50.9931 82.3213 60.6229 82.3213C70.2527 82.3213 78.0161 74.6888 78.0161 65.3277C78.0161 56.0326 70.319 48.5721 60.6229 48.5721C57.1418 48.5721 54.3197 45.75 54.3197 42.2689C54.3197 38.7877 57.1418 35.9657 60.6229 35.9657C77.1948 35.9657 90.6226 48.9808 90.6226 65.3277C90.6226 81.6995 77.1675 94.9276 60.6229 94.9276C44.0784 94.9276 30.6233 81.6995 30.6233 65.3277V32.3756C30.6233 28.8944 33.4453 26.0724 36.9265 26.0724ZM60.2851 56.2327C65.0948 56.2327 68.9937 60.1317 68.9937 64.9412C68.9937 69.7508 65.0948 73.6498 60.2851 73.6498C55.4755 73.6498 51.5766 69.7508 51.5766 64.9412C51.5766 60.1317 55.4755 56.2327 60.2851 56.2327Z" fill="#614AD9"/>
</g>
<defs>
<clipPath id="clip0_5_293">
<rect width="120" height="120" fill="white" transform="translate(0.622803 0.5)"/>
</clipPath>
</defs>
</svg>
