<svg width="121" height="120" viewBox="0 0 121 120" fill="none" xmlns="http://www.w3.org/2000/svg">
<g clip-path="url(#clip0_4_44)">
<rect x="0.622803" width="120" height="120" rx="27" fill="#614AD9"/>
<path d="M36.9265 25.5724C40.4077 25.5724 43.2297 28.3944 43.2297 31.8756V64.8277C43.2297 74.1888 50.9931 81.8213 60.6229 81.8213C70.2527 81.8213 78.0161 74.1888 78.0161 64.8277C78.0161 55.5326 70.319 48.0721 60.6229 48.0721C57.1418 48.0721 54.3197 45.25 54.3197 41.7689C54.3197 38.2877 57.1418 35.4657 60.6229 35.4657C77.1948 35.4657 90.6226 48.4808 90.6226 64.8277C90.6226 81.1995 77.1675 94.4276 60.6229 94.4276C44.0784 94.4276 30.6233 81.1995 30.6233 64.8277V31.8756C30.6233 28.3944 33.4453 25.5724 36.9265 25.5724ZM60.2851 55.7327C65.0948 55.7327 68.9937 59.6317 68.9937 64.4412C68.9937 69.2508 65.0948 73.1498 60.2851 73.1498C55.4755 73.1498 51.5766 69.2508 51.5766 64.4412C51.5766 59.6317 55.4755 55.7327 60.2851 55.7327Z" fill="white"/>
</g>
<defs>
<clipPath id="clip0_4_44">
<rect width="120" height="120" fill="white" transform="translate(0.622803)"/>
</clipPath>
</defs>
</svg>
