<?xml version="1.0" encoding="utf-8"?>
<!-- Generator: Adobe Illustrator 16.0.0, SVG Export Plug-In . SVG Version: 6.00 Build 0)  -->
<!DOCTYPE svg PUBLIC "-//W3C//DTD SVG 1.1//EN" "http://www.w3.org/Graphics/SVG/1.1/DTD/svg11.dtd">
<svg version="1.1" id="Layer_1" xmlns="http://www.w3.org/2000/svg" xmlns:xlink="http://www.w3.org/1999/xlink" x="0px" y="0px"
	 width="300px" height="300px" viewBox="156.5 246.5 300 300" enable-background="new 156.5 246.5 300 300" xml:space="preserve">
<g>
	<g>
		<path fill-rule="evenodd" clip-rule="evenodd" fill="#000" d="M431,421l25-25l-25-25h-28.156
			c-2.487-9.661-6.389-18.752-11.458-27.052l14.617-14.617v-33.334h-33.334l-14.614,14.615c-8.3-5.071-17.393-8.974-27.055-11.46
			V271l-25-25l-25,25v28.151c-9.663,2.487-18.754,6.389-27.054,11.46l-14.615-14.615h-33.334v33.334l14.617,14.617
			c-5.069,8.3-8.97,17.391-11.458,27.052H181l-25,25l25,25h28.156c2.487,9.661,6.388,18.752,11.458,27.052l-14.617,14.617v33.334
			h33.334l14.615-14.614c8.3,5.071,17.392,8.974,27.054,11.461V521l25,25l25-25v-28.15c9.662-2.487,18.755-6.39,27.055-11.461
			l14.614,14.614h33.334v-33.334l-14.617-14.617c5.069-8.3,8.971-17.391,11.458-27.052H431z M306,446c-27.614,0-50-22.386-50-50
			s22.386-50,50-50s50,22.386,50,50S333.614,446,306,446z"/>
	</g>
</g>
</svg>
