<svg width="61" height="61" viewBox="0 0 61 61" fill="none" xmlns="http://www.w3.org/2000/svg">
<path d="M50.1901 30.3677L54.6901 25.8927C54.9232 25.6596 55.1081 25.3829 55.2343 25.0783C55.3604 24.7738 55.4254 24.4474 55.4254 24.1177C55.4254 23.7881 55.3604 23.4616 55.2343 23.1571C55.1081 22.8525 54.9232 22.5758 54.6901 22.3427C54.457 22.1096 54.1803 21.9247 53.8758 21.7986C53.5712 21.6724 53.2448 21.6075 52.9151 21.6075C52.5855 21.6075 52.2591 21.6724 51.9545 21.7986C51.65 21.9247 51.3732 22.1096 51.1401 22.3427L46.6651 26.8427L42.1901 22.3427C41.7194 21.872 41.0809 21.6075 40.4151 21.6075C39.7494 21.6075 39.1109 21.872 38.6401 22.3427C38.1694 22.8135 37.9049 23.452 37.9049 24.1177C37.9049 24.7835 38.1694 25.422 38.6401 25.8927L43.1401 30.3677L38.6401 34.8427C38.4058 35.0751 38.2198 35.3516 38.0929 35.6563C37.966 35.9609 37.9006 36.2877 37.9006 36.6177C37.9006 36.9477 37.966 37.2745 38.0929 37.5792C38.2198 37.8838 38.4058 38.1603 38.6401 38.3927C38.8725 38.627 39.149 38.813 39.4537 38.9399C39.7583 39.0669 40.0851 39.1322 40.4151 39.1322C40.7452 39.1322 41.0719 39.0669 41.3766 38.9399C41.6812 38.813 41.9577 38.627 42.1901 38.3927L46.6651 33.8927L51.1401 38.3927C51.3725 38.627 51.649 38.813 51.9537 38.9399C52.2583 39.0669 52.5851 39.1322 52.9151 39.1322C53.2452 39.1322 53.5719 39.0669 53.8766 38.9399C54.1812 38.813 54.4577 38.627 54.6901 38.3927C54.9244 38.1603 55.1104 37.8838 55.2374 37.5792C55.3643 37.2745 55.4296 36.9477 55.4296 36.6177C55.4296 36.2877 55.3643 35.9609 55.2374 35.6563C55.1104 35.3516 54.9244 35.0751 54.6901 34.8427L50.1901 30.3677Z" fill="white"/>
<path d="M28.8652 10.5677C28.4099 10.3763 27.9081 10.324 27.4231 10.4174C26.9382 10.5108 26.4917 10.7458 26.1402 11.0927L16.8902 20.3677H10.4152C9.08908 20.3677 7.81731 20.8945 6.87963 21.8322C5.94195 22.7699 5.41516 24.0416 5.41516 25.3677V35.3677C5.41516 36.6938 5.94195 37.9656 6.87963 38.9033C7.81731 39.8409 9.08908 40.3677 10.4152 40.3677H16.8902L26.1402 49.6427C26.3738 49.8744 26.6508 50.0577 26.9554 50.1821C27.26 50.3066 27.5861 50.3696 27.9152 50.3677C28.2431 50.3762 28.5685 50.3077 28.8652 50.1677C29.3217 49.9802 29.7125 49.6617 29.9884 49.2524C30.2642 48.8431 30.4127 48.3613 30.4152 47.8677V12.8677C30.4127 12.3742 30.2642 11.8924 29.9884 11.4831C29.7125 11.0738 29.3217 10.7553 28.8652 10.5677Z" fill="white"/>
</svg>
