<svg width="121" height="121" viewBox="0 0 121 121" fill="none" xmlns="http://www.w3.org/2000/svg">
<g clip-path="url(#clip0_5_315)">
<rect x="0.622803" y="0.5" width="120" height="120" rx="27" fill="#121212"/>
<path d="M68.7229 24.05C59.9619 24.0538 52.071 29.3491 48.7471 37.4551C46.7915 35.7764 44.3001 34.8524 41.7229 34.85C35.7582 34.85 30.9229 39.6853 30.9229 45.65C30.9258 48.0224 31.7097 50.3278 33.1536 52.2101C30.1174 53.8635 28.2264 57.0428 28.2229 60.5C28.2229 63.0063 29.2185 65.4099 30.9907 67.1821C32.763 68.9544 35.1666 69.95 37.6729 69.95C38.1248 69.9472 38.576 69.9119 39.0229 69.8445V72.65C39.0229 77.1374 42.6355 80.75 47.1229 80.75H74.1229C78.6103 80.75 82.2229 77.1374 82.2229 72.65V72.5392C82.6697 72.6084 83.1208 72.6454 83.5729 72.65C88.792 72.65 93.0229 68.4191 93.0229 63.2C93.0213 59.7799 91.1718 56.6276 88.1872 54.9576C89.5846 52.0533 90.3143 48.873 90.3229 45.65C90.3229 33.7206 80.6523 24.05 68.7229 24.05Z" fill="#F4D6BB"/>
<path fill-rule="evenodd" clip-rule="evenodd" d="M57.0853 59.15H66.2034C67.7422 59.15 68.9896 60.3974 68.9896 61.9362C68.9896 62.3755 68.8857 62.8085 68.6865 63.2C67.4217 65.6851 64.8692 67.25 62.0808 67.25H61.2876C58.4844 67.25 55.9148 65.6882 54.6239 63.2C53.9186 61.8406 54.4489 60.1668 55.8084 59.4615C56.2029 59.2568 56.6409 59.15 57.0853 59.15Z" fill="#171414"/>
<path d="M47.1229 59.15C50.1052 59.15 52.5229 56.7323 52.5229 53.75C52.5229 50.7677 50.1052 48.35 47.1229 48.35C44.1406 48.35 41.7229 50.7677 41.7229 53.75C41.7229 56.7323 44.1406 59.15 47.1229 59.15Z" fill="#1E1D1B"/>
<path d="M74.1229 59.15C77.1052 59.15 79.5229 56.7323 79.5229 53.75C79.5229 50.7677 77.1052 48.35 74.1229 48.35C71.1406 48.35 68.7229 50.7677 68.7229 53.75C68.7229 56.7323 71.1406 59.15 74.1229 59.15Z" fill="#1E1D1B"/>
<path d="M49.4726 53.2005C50.1908 53.2005 50.7731 52.6182 50.7731 51.9C50.7731 51.1818 50.1908 50.5995 49.4726 50.5995C48.7544 50.5995 48.1721 51.1818 48.1721 51.9C48.1721 52.6182 48.7544 53.2005 49.4726 53.2005Z" fill="white"/>
<path d="M76.4333 53.1607C77.1513 53.1607 77.7333 52.5787 77.7333 51.8607C77.7333 51.1427 77.1513 50.5607 76.4333 50.5607C75.7153 50.5607 75.1333 51.1427 75.1333 51.8607C75.1333 52.5787 75.7153 53.1607 76.4333 53.1607Z" fill="white"/>
<path d="M50.5925 96.95H58.1728L57.737 73.2178C57.7206 69.3098 50.7924 68.0844 49.7732 72.2786L50.5925 96.95Z" fill="url(#paint0_linear_5_315)"/>
<path d="M84.0822 96.95H79.97L82.3787 70.5063C82.6835 66.608 89.6182 65.8811 90.3228 70.1364L86.754 94.6391C86.5607 95.966 85.423 96.95 84.0822 96.95Z" fill="url(#paint1_linear_5_315)"/>
<path d="M43.9467 96.95H50.7559L49.7765 72.1274C49.6683 68.2194 42.5501 67.1484 41.5964 71.3619L43.9467 96.95Z" fill="#FF6544"/>
<path d="M39.8337 96.95H43.9466L41.5669 70.7347C41.2621 66.8364 34.3274 66.1095 33.6228 70.3648L37.1619 94.6395C37.3553 95.9662 38.493 96.95 39.8337 96.95Z" fill="url(#paint2_linear_5_315)"/>
<path d="M79.9732 96.95H72.9172L74.179 71.9151C74.2871 68.0072 81.4054 66.9361 82.359 71.1496L79.9732 96.95Z" fill="#FF6544"/>
<path d="M73.1008 96.95H65.9695L66.6217 73.0183C66.638 69.1104 73.5662 67.8849 74.5854 72.0792L73.1008 96.95Z" fill="url(#paint3_linear_5_315)"/>
<path d="M58.0122 96.95H66.0743L66.6577 73.9254C66.6085 68.3127 57.7435 68.2934 57.7173 73.8353L58.0122 96.95Z" fill="#FF6544"/>
</g>
<defs>
<linearGradient id="paint0_linear_5_315" x1="482.31" y1="3028.69" x2="339.739" y2="156.155" gradientUnits="userSpaceOnUse">
<stop stop-color="#E1E1E1"/>
<stop offset="1" stop-color="#F9F9F9"/>
</linearGradient>
<linearGradient id="paint1_linear_5_315" x1="613.424" y1="68.5425" x2="287.443" y2="3553.81" gradientUnits="userSpaceOnUse">
<stop stop-color="#FAFAFA"/>
<stop offset="1" stop-color="#E0E0E0"/>
</linearGradient>
<linearGradient id="paint2_linear_5_315" x1="573.093" y1="3812.92" x2="287.958" y2="83.7876" gradientUnits="userSpaceOnUse">
<stop stop-color="#E3E3E3"/>
<stop offset="1" stop-color="#F8F8F8"/>
</linearGradient>
<linearGradient id="paint3_linear_5_315" x1="506.76" y1="103.782" x2="324.495" y2="3104.1" gradientUnits="userSpaceOnUse">
<stop stop-color="#FAFAFA"/>
<stop offset="1" stop-color="#E0E0E0"/>
</linearGradient>
<clipPath id="clip0_5_315">
<rect width="120" height="120" fill="white" transform="translate(0.622803 0.5)"/>
</clipPath>
</defs>
</svg>
