<svg width="121" height="120" viewBox="0 0 121 120" fill="none" xmlns="http://www.w3.org/2000/svg">
<g clip-path="url(#clip0_4_52)">
<rect x="0.622803" width="120" height="120" rx="27" fill="#950909"/>
<path d="M68.7229 23.55C59.9619 23.5538 52.071 28.8491 48.7471 36.9551C46.7915 35.2764 44.3001 34.3524 41.7229 34.35C35.7582 34.35 30.9229 39.1853 30.9229 45.15C30.9258 47.5224 31.7097 49.8278 33.1536 51.7101C30.1174 53.3635 28.2264 56.5428 28.2229 60C28.2229 62.5063 29.2185 64.9099 30.9907 66.6821C32.763 68.4544 35.1666 69.45 37.6729 69.45C38.1248 69.4472 38.576 69.4119 39.0229 69.3445V72.15C39.0229 76.6374 42.6355 80.25 47.1229 80.25H74.1229C78.6103 80.25 82.2229 76.6374 82.2229 72.15V72.0392C82.6697 72.1084 83.1208 72.1454 83.5729 72.15C88.792 72.15 93.0229 67.9191 93.0229 62.7C93.0213 59.2799 91.1718 56.1276 88.1872 54.4576C89.5846 51.5533 90.3143 48.373 90.3229 45.15C90.3229 33.2206 80.6523 23.55 68.7229 23.55Z" fill="#F4E0CE"/>
<path fill-rule="evenodd" clip-rule="evenodd" d="M57.0853 58.65H66.2034C67.7422 58.65 68.9896 59.8974 68.9896 61.4362C68.9896 61.8755 68.8857 62.3085 68.6865 62.7C67.4217 65.1851 64.8692 66.75 62.0808 66.75H61.2876C58.4844 66.75 55.9148 65.1882 54.6239 62.7C53.9186 61.3406 54.4489 59.6668 55.8084 58.9615C56.2029 58.7568 56.6409 58.65 57.0853 58.65Z" fill="#3A2222"/>
<path d="M47.1229 58.65C50.1052 58.65 52.5229 56.2323 52.5229 53.25C52.5229 50.2677 50.1052 47.85 47.1229 47.85C44.1406 47.85 41.7229 50.2677 41.7229 53.25C41.7229 56.2323 44.1406 58.65 47.1229 58.65Z" fill="#1E1D1D"/>
<path d="M48.4727 54.6C49.9639 54.6 51.1727 53.3912 51.1727 51.9C51.1727 50.4088 49.9639 49.2 48.4727 49.2C46.9815 49.2 45.7727 50.4088 45.7727 51.9C45.7727 53.3912 46.9815 54.6 48.4727 54.6Z" fill="white"/>
<path d="M74.1229 58.65C77.1052 58.65 79.5229 56.2323 79.5229 53.25C79.5229 50.2677 77.1052 47.85 74.1229 47.85C71.1406 47.85 68.7229 50.2677 68.7229 53.25C68.7229 56.2323 71.1406 58.65 74.1229 58.65Z" fill="#1E1D1D"/>
<path d="M75.4727 54.6C76.9639 54.6 78.1727 53.3912 78.1727 51.9C78.1727 50.4088 76.9639 49.2 75.4727 49.2C73.9815 49.2 72.7727 50.4088 72.7727 51.9C72.7727 53.3912 73.9815 54.6 75.4727 54.6Z" fill="white"/>
<path d="M68.7229 23.55C59.9619 23.5538 52.071 28.8491 48.7471 36.9551C46.7915 35.2764 44.3001 34.3524 41.7229 34.35C35.7582 34.35 30.9229 39.1853 30.9229 45.15C30.9256 45.6068 30.9573 46.063 31.0178 46.5158C31.6904 41.1134 36.2788 37.0561 41.7229 37.05C44.3001 37.0524 46.7915 37.9764 48.7471 39.6551C52.071 31.5491 59.9619 26.2538 68.7229 26.25C80.1295 26.262 89.5606 35.1412 90.2596 46.5264C90.2953 46.0684 90.3164 45.6093 90.3229 45.15C90.3229 33.2206 80.6523 23.55 68.7229 23.55ZM31.9881 52.4748C29.6239 54.2552 28.2303 57.0404 28.2229 60C28.2262 60.4484 28.2615 60.896 28.3284 61.3394C28.758 58.3996 30.5453 55.833 33.1536 54.4101C32.6985 53.8075 32.3079 53.1589 31.9881 52.4748ZM89.0678 55.0324C88.8122 55.7559 88.5183 56.4654 88.1872 57.1576C90.7536 58.5981 92.5024 61.1521 92.9174 64.0658C92.9856 63.6137 93.0208 63.1572 93.0229 62.7C93.0163 59.6563 91.544 56.8022 89.0678 55.0324Z" fill="#F3E1CE"/>
<path d="M50.5925 96.45H58.1728L57.737 72.7178C57.7206 68.8098 50.7924 67.5844 49.7732 71.7786L50.5925 96.45Z" fill="url(#paint0_linear_4_52)"/>
<path d="M84.0822 96.45H79.97L82.3787 70.0063C82.6835 66.108 89.6182 65.3811 90.3228 69.6364L86.754 94.1391C86.5607 95.466 85.423 96.45 84.0822 96.45Z" fill="url(#paint1_linear_4_52)"/>
<path d="M43.9467 96.45H50.7559L49.7765 71.6274C49.6683 67.7194 42.5501 66.6484 41.5964 70.8619L43.9467 96.45Z" fill="url(#paint2_linear_4_52)"/>
<path d="M39.8337 96.45H43.9466L41.5669 70.2347C41.2621 66.3364 34.3274 65.6095 33.6228 69.8648L37.1619 94.1395C37.3553 95.4662 38.493 96.45 39.8337 96.45Z" fill="url(#paint3_linear_4_52)"/>
<path d="M79.9732 96.45H72.9172L74.179 71.4151C74.2871 67.5072 81.4054 66.4361 82.359 70.6496L79.9732 96.45Z" fill="url(#paint4_linear_4_52)"/>
<path d="M73.1008 96.45H65.9695L66.6217 72.5183C66.638 68.6104 73.5662 67.3849 74.5854 71.5792L73.1008 96.45Z" fill="url(#paint5_linear_4_52)"/>
<path d="M58.0122 96.45H66.0743L66.6577 73.4254C66.6085 67.8127 57.7435 67.7934 57.7173 73.3353L58.0122 96.45Z" fill="url(#paint6_linear_4_52)"/>
</g>
<defs>
<linearGradient id="paint0_linear_4_52" x1="482.31" y1="3028.19" x2="339.739" y2="155.655" gradientUnits="userSpaceOnUse">
<stop stop-color="#E1E1E1"/>
<stop offset="1" stop-color="#F9F9F9"/>
</linearGradient>
<linearGradient id="paint1_linear_4_52" x1="613.424" y1="68.0425" x2="287.443" y2="3553.31" gradientUnits="userSpaceOnUse">
<stop stop-color="#FAFAFA"/>
<stop offset="1" stop-color="#E0E0E0"/>
</linearGradient>
<linearGradient id="paint2_linear_4_52" x1="508.046" y1="3323.24" x2="353.649" y2="182.161" gradientUnits="userSpaceOnUse">
<stop stop-color="#D22900"/>
<stop offset="1" stop-color="#FF6443"/>
</linearGradient>
<linearGradient id="paint3_linear_4_52" x1="573.093" y1="3812.42" x2="287.958" y2="83.2876" gradientUnits="userSpaceOnUse">
<stop stop-color="#E3E3E3"/>
<stop offset="1" stop-color="#F8F8F8"/>
</linearGradient>
<linearGradient id="paint4_linear_4_52" x1="533.52" y1="3202.96" x2="741.645" y2="209.918" gradientUnits="userSpaceOnUse">
<stop stop-color="#D22900"/>
<stop offset="1" stop-color="#FF6443"/>
</linearGradient>
<linearGradient id="paint5_linear_4_52" x1="506.76" y1="103.282" x2="324.495" y2="3103.6" gradientUnits="userSpaceOnUse">
<stop stop-color="#FAFAFA"/>
<stop offset="1" stop-color="#E0E0E0"/>
</linearGradient>
<linearGradient id="paint6_linear_4_52" x1="509.533" y1="3122.86" x2="481.679" y2="84.2661" gradientUnits="userSpaceOnUse">
<stop stop-color="#D22900"/>
<stop offset="1" stop-color="#FF6443"/>
</linearGradient>
<clipPath id="clip0_4_52">
<rect width="120" height="120" fill="white" transform="translate(0.622803)"/>
</clipPath>
</defs>
</svg>
