<svg width="61" height="60" viewBox="0 0 61 60" fill="none" xmlns="http://www.w3.org/2000/svg">
<path d="M46.3151 48.4C45.6593 48.3973 45.0308 48.1369 44.5651 47.675C44.0995 47.2066 43.8381 46.573 43.8381 45.9125C43.8381 45.2521 44.0995 44.6184 44.5651 44.15C46.4246 42.2926 47.8998 40.0868 48.9063 37.6588C49.9128 35.2309 50.4308 32.6283 50.4308 30C50.4308 27.3717 49.9128 24.7692 48.9063 22.3412C47.8998 19.9132 46.4246 17.7075 44.5651 15.85C44.1555 15.3718 43.9415 14.7566 43.9658 14.1274C43.9901 13.4982 44.251 12.9013 44.6962 12.4561C45.1414 12.0109 45.7383 11.75 46.3675 11.7257C46.9967 11.7014 47.6119 11.9155 48.0901 12.325C52.7769 17.0132 55.4098 23.3709 55.4098 30C55.4098 36.6291 52.7769 42.9868 48.0901 47.675C47.8565 47.9067 47.5795 48.09 47.2749 48.2144C46.9703 48.3389 46.6441 48.4019 46.3151 48.4Z" fill="white"/>
<path d="M39.2652 41.35C38.9344 41.3486 38.6072 41.2816 38.3025 41.1529C37.9978 41.0241 37.7217 40.8362 37.4902 40.6C37.0245 40.1316 36.7632 39.4979 36.7632 38.8375C36.7632 38.177 37.0245 37.5434 37.4902 37.075C38.4199 36.1462 39.1575 35.0434 39.6608 33.8294C40.164 32.6154 40.423 31.3141 40.423 30C40.423 28.6858 40.164 27.3845 39.6608 26.1706C39.1575 24.9566 38.4199 23.8537 37.4902 22.925C37.0806 22.4467 36.8666 21.8315 36.8909 21.2023C36.9152 20.5731 37.176 19.9763 37.6213 19.5311C38.0665 19.0858 38.6633 18.825 39.2925 18.8007C39.9217 18.7764 40.5369 18.9904 41.0152 19.4C43.8242 22.2125 45.402 26.025 45.402 30C45.402 33.975 43.8242 37.7875 41.0152 40.6C40.5536 41.071 39.9246 41.3406 39.2652 41.35Z" fill="white"/>
<path d="M28.8652 10.2C28.4099 10.0085 27.9081 9.95623 27.4231 10.0497C26.9382 10.1431 26.4917 10.3781 26.1402 10.725L16.8902 20H10.4152C9.08908 20 7.81731 20.5268 6.87963 21.4644C5.94195 22.4021 5.41516 23.6739 5.41516 25V35C5.41516 36.3261 5.94195 37.5978 6.87963 38.5355C7.81731 39.4732 9.08908 40 10.4152 40H16.8902L26.1402 49.275C26.3738 49.5067 26.6508 49.69 26.9554 49.8144C27.26 49.9388 27.5861 50.0019 27.9152 50C28.2431 50.0084 28.5685 49.9399 28.8652 49.8C29.3217 49.6124 29.7125 49.2939 29.9884 48.8846C30.2642 48.4753 30.4127 47.9935 30.4152 47.5V12.5C30.4127 12.0064 30.2642 11.5246 29.9884 11.1153C29.7125 10.706 29.3217 10.3875 28.8652 10.2Z" fill="white"/>
</svg>
