<svg width="120" height="121" viewBox="0 0 120 121" fill="none" xmlns="http://www.w3.org/2000/svg">
<g clip-path="url(#clip0_5_308)">
<rect x="-0.377197" y="0.5" width="120" height="120" rx="27" fill="#121212"/>
<path d="M19.3911 42.4073C19.3911 34.703 25.6367 28.4573 33.3411 28.4573H69.5018C70.4959 28.4573 71.3018 29.2632 71.3018 30.2573V48.1702H57.1035C56.1094 48.1702 55.3035 48.9761 55.3035 49.9702V90.7427C55.3035 91.7368 54.4977 92.5427 53.5035 92.5427H38.6298C37.6357 92.5427 36.8298 91.7368 36.8298 90.7427V49.9702C36.8298 48.9761 36.0239 48.1702 35.0298 48.1702H21.1911C20.197 48.1702 19.3911 47.3643 19.3911 46.3702V42.4073Z" fill="#005DAB"/>
<path d="M80.4094 30.7074C80.4094 29.4648 81.4168 28.4574 82.6594 28.4574H86.2348C93.6907 28.4574 99.7348 34.5016 99.7348 41.9574V64.3496C99.7348 65.5922 98.7275 66.5996 97.4848 66.5996H87.6094C83.633 66.5996 80.4094 63.376 80.4094 59.3995V30.7074Z" fill="#005DAB"/>
<ellipse cx="90.0722" cy="81.6358" rx="10.5363" ry="10.5363" fill="#005DAB"/>
</g>
<defs>
<clipPath id="clip0_5_308">
<rect width="120" height="120" fill="white" transform="translate(0 0.5)"/>
</clipPath>
</defs>
</svg>
