<svg width="120" height="120" viewBox="0 0 120 120" fill="none" xmlns="http://www.w3.org/2000/svg">
<g clip-path="url(#clip0_4_50)">
<rect x="-0.377197" width="120" height="120" rx="27" fill="#005DAB"/>
<path d="M19.3911 41.9073C19.3911 34.203 25.6367 27.9573 33.3411 27.9573H69.5018C70.4959 27.9573 71.3018 28.7632 71.3018 29.7573V47.6702H57.1035C56.1094 47.6702 55.3035 48.4761 55.3035 49.4702V90.2427C55.3035 91.2368 54.4977 92.0427 53.5035 92.0427H38.6298C37.6357 92.0427 36.8298 91.2368 36.8298 90.2427V49.4702C36.8298 48.4761 36.0239 47.6702 35.0298 47.6702H21.1911C20.197 47.6702 19.3911 46.8643 19.3911 45.8702V41.9073Z" fill="white"/>
<path d="M80.4094 30.2074C80.4094 28.9648 81.4168 27.9574 82.6594 27.9574H86.2348C93.6907 27.9574 99.7348 34.0016 99.7348 41.4574V63.8496C99.7348 65.0922 98.7275 66.0996 97.4848 66.0996H87.6094C83.633 66.0996 80.4094 62.876 80.4094 58.8995V30.2074Z" fill="white"/>
<ellipse cx="90.0722" cy="81.1358" rx="10.5363" ry="10.5363" fill="white"/>
</g>
<defs>
<clipPath id="clip0_4_50">
<rect width="120" height="120" fill="white"/>
</clipPath>
</defs>
</svg>
