<svg width="121" height="121" viewBox="0 0 121 121" fill="none" xmlns="http://www.w3.org/2000/svg">
<g clip-path="url(#clip0_5_298)">
<rect x="0.622803" y="0.5" width="120" height="120" rx="27" fill="#121212"/>
<path d="M51.9079 60.4998L47.4771 64.9305L56.1921 73.6456L60.6229 69.2147L51.9079 60.4998Z" fill="#E63F0C"/>
<path d="M87.7252 33.3981C86.5713 32.2439 85.2012 31.3284 83.6934 30.7038C82.1856 30.0792 80.5695 29.7577 78.9374 29.7577C77.3054 29.7577 75.6892 30.0792 74.1815 30.7038C72.6736 31.3284 71.3036 32.2439 70.1496 33.3981L60.6234 42.9242L51.0972 33.3981C48.7666 31.0674 45.6055 29.758 42.3095 29.758C39.0134 29.758 35.8523 31.0674 33.5216 33.3981C31.1909 35.7287 29.8816 38.8898 29.8816 42.1858C29.8816 45.482 31.1909 48.643 33.5216 50.9737L43.0478 60.4999L47.4781 56.0727L37.9519 46.5434C36.8384 45.3791 36.225 43.8252 36.2429 42.2143C36.2609 40.6034 36.9088 39.0635 38.0479 37.9244C39.1871 36.7852 40.7269 36.1373 42.3378 36.1194C43.9487 36.1014 45.5027 36.7149 46.6669 37.8283L60.6234 51.7848L74.5799 37.8283C75.7442 36.7149 77.2981 36.1014 78.909 36.1194C80.5199 36.1373 82.0597 36.7852 83.1989 37.9244C84.338 39.0635 84.9859 40.6034 85.0039 42.2143C85.0219 43.8252 84.4085 45.3791 83.2949 46.5434L60.6234 69.2149L65.0537 73.6452L87.7252 50.9737C88.8794 49.8197 89.7948 48.4497 90.4194 46.9418C91.0441 45.434 91.3656 43.8179 91.3656 42.1858C91.3656 40.5538 91.0441 38.9377 90.4194 37.4299C89.7948 35.9221 88.8794 34.552 87.7252 33.3981Z" fill="#E63F0C"/>
<path d="M33.521 87.6019C34.6749 88.756 36.045 89.6715 37.5528 90.2961C39.0606 90.9207 40.6767 91.2423 42.3087 91.2423C43.9408 91.2423 45.5569 90.9207 47.0647 90.2961C48.5726 89.6715 49.9426 88.756 51.0966 87.6019L60.6228 78.0757L70.149 87.6019C72.4796 89.9326 75.6407 91.242 78.9367 91.242C82.2328 91.242 85.3939 89.9326 87.7246 87.6019C90.0552 85.2713 91.3646 82.1101 91.3646 78.8141C91.3646 75.518 90.0552 72.357 87.7246 70.0263L78.1984 60.5001L73.7681 64.9304L83.2943 74.4566C84.4077 75.6209 85.0212 77.1748 85.0033 78.7857C84.9853 80.3966 84.3374 81.9364 83.1983 83.0756C82.0591 84.2147 80.5192 84.8626 78.9083 84.8806C77.2974 84.8985 75.7435 84.2851 74.5792 83.1716L60.6228 69.2152L46.6663 83.1716C45.502 84.2851 43.9481 84.8985 42.3372 84.8806C40.7263 84.8626 39.1864 84.2147 38.0473 83.0756C36.9081 81.9364 36.2602 80.3966 36.2423 78.7857C36.2243 77.1748 36.8377 75.6209 37.9512 74.4566L60.6228 51.7851L56.1956 47.3548L33.521 70.0263C32.3668 71.1803 31.4513 72.5503 30.8267 74.0581C30.2021 75.5659 29.8806 77.182 29.8806 78.8141C29.8806 80.4462 30.2021 82.0623 30.8267 83.5701C31.4513 85.0779 32.3668 86.448 33.521 87.6019Z" fill="#F48026"/>
<path d="M65.0532 47.3521L60.6223 51.7829L69.3374 60.4979L73.7682 56.0671L65.0532 47.3521Z" fill="#F48026"/>
</g>
<defs>
<clipPath id="clip0_5_298">
<rect width="120" height="120" fill="white" transform="translate(0.622803 0.5)"/>
</clipPath>
</defs>
</svg>
