<svg width="121" height="120" viewBox="0 0 121 120" fill="none" xmlns="http://www.w3.org/2000/svg">
<g clip-path="url(#clip0_4_46)">
<rect x="0.622803" width="120" height="120" rx="27" fill="white"/>
<path d="M49.8638 59.9997L44.3936 65.4698L55.1529 76.2291L60.6229 70.7589L49.8638 59.9997Z" fill="#E63F0C"/>
<path d="M94.0822 26.5408C92.6575 25.116 90.9661 23.9857 89.1046 23.2146C87.2431 22.4435 85.2479 22.0466 83.233 22.0466C81.2182 22.0466 79.223 22.4435 77.3615 23.2146C75.5 23.9857 73.8086 25.116 72.3839 26.5408L60.6232 38.3015L48.8625 26.5408C45.9851 23.6634 42.0826 22.047 38.0134 22.047C33.9442 22.047 30.0416 23.6634 27.1643 26.5408C24.2869 29.4182 22.6704 33.3207 22.6704 37.3899C22.6704 41.4592 24.2869 45.3617 27.1643 48.2391L38.9249 59.9998L44.3944 54.5342L32.6337 42.7696C31.2591 41.3322 30.5017 39.4138 30.5239 37.425C30.5461 35.4363 31.3459 33.5352 32.7523 32.1289C34.1587 30.7225 36.0597 29.9226 38.0485 29.9005C40.0372 29.8783 41.9557 30.6356 43.393 32.0103L60.6232 49.2405L77.8534 32.0103C79.2908 30.6356 81.2092 29.8783 83.1979 29.9005C85.1867 29.9226 87.0877 30.7225 88.4941 32.1289C89.9004 33.5352 90.7003 35.4363 90.7225 37.425C90.7447 39.4138 89.9874 41.3322 88.6127 42.7696L60.6232 70.7591L66.0927 76.2286L94.0822 48.2391C95.5071 46.8144 96.6372 45.123 97.4083 43.2615C98.1796 41.4 98.5764 39.4048 98.5764 37.3899C98.5764 35.3751 98.1796 33.3799 97.4083 31.5184C96.6372 29.6569 95.5071 27.9655 94.0822 26.5408Z" fill="#E63F0C"/>
<path d="M27.1637 93.4592C28.5883 94.8839 30.2797 96.0142 32.1412 96.7853C34.0027 97.5564 35.9979 97.9534 38.0127 97.9534C40.0277 97.9534 42.0229 97.5564 43.8843 96.7853C45.7459 96.0142 47.4373 94.8839 48.8619 93.4592L60.6226 81.6984L72.3833 93.4592C75.2607 96.3365 79.1632 97.953 83.2324 97.953C87.3016 97.953 91.2042 96.3365 94.0816 93.4592C96.959 90.5818 98.5755 86.6792 98.5755 82.61C98.5755 78.5408 96.959 74.6382 94.0816 71.7609L82.3209 60.0002L76.8514 65.4696L88.6121 77.2304C89.9867 78.6677 90.744 80.5862 90.722 82.5749C90.6998 84.5637 89.8998 86.4647 88.4936 87.8711C87.0872 89.2774 85.1861 90.0773 83.1974 90.0995C81.2086 90.1216 79.2902 89.3643 77.8528 87.9897L60.6226 70.7595L43.3925 87.9897C41.9551 89.3643 40.0367 90.1216 38.0479 90.0995C36.0591 90.0773 34.1581 89.2774 32.7517 87.8711C31.3454 86.4647 30.5455 84.5637 30.5233 82.5749C30.5012 80.5862 31.2585 78.6677 32.6331 77.2304L60.6226 49.2408L55.157 43.7714L27.1637 71.7609C25.7388 73.1855 24.6086 74.8769 23.8375 76.7384C23.0663 78.5999 22.6694 80.595 22.6694 82.61C22.6694 84.6249 23.0663 86.6201 23.8375 88.4816C24.6086 90.3431 25.7388 92.0345 27.1637 93.4592Z" fill="#F48026"/>
<path d="M66.0923 43.768L60.6221 49.2382L71.3814 59.9974L76.8516 54.5273L66.0923 43.768Z" fill="#F48026"/>
</g>
<defs>
<clipPath id="clip0_4_46">
<rect width="120" height="120" fill="white" transform="translate(0.622803)"/>
</clipPath>
</defs>
</svg>
